<?xml version="1.0" encoding="UTF-8"?>
<svg xmlns="http://www.w3.org/2000/svg"
     width="210mm"
     height="297mm"
     viewBox="0 0 2100 2970"
     role="img"
     aria-label="Cornice ornamentale Ars Liturgica">
  <title>Cornice ornamentale Ars Liturgica</title>
  <g transform="translate(0.0000 85.0000) scale(4.666667)">
    <path d="M 79 559 L 80 558 L 371 558 L 372 559 L 372 561 L 370 564 L 81 564 L 79 561 Z
M 402 552 L 403 551 L 406 551 L 410 553 L 413 556 L 414 561 L 413 562 L 408 562 L 404 558 Z
M 48 551 L 49 553 L 48 554 L 47 558 L 43 562 L 38 562 L 37 561 L 38 556 L 42 552 Z
M 393 548 L 392 550 L 385 553 L 381 553 L 380 552 L 381 550 L 385 548 L 388 548 L 389 547 L 392 547 Z
M 58 548 L 59 547 L 66 548 L 70 550 L 71 552 L 70 553 L 66 553 L 59 550 Z
M 404 528 L 405 529 L 404 535 L 403 536 L 402 540 L 400 541 L 399 540 L 399 535 L 402 529 Z
M 47 528 L 49 529 L 52 535 L 52 540 L 51 541 L 49 540 L 48 536 L 47 535 L 47 532 L 46 531 L 46 529 Z
M 410 80 L 412 81 L 415 81 L 416 82 L 416 519 L 415 520 L 412 520 L 411 521 L 409 520 L 409 81 Z
M 40 80 L 42 81 L 42 520 L 41 521 L 39 520 L 36 520 L 35 519 L 35 82 L 36 81 L 39 81 Z
M 400 60 L 402 61 L 403 65 L 404 66 L 404 69 L 405 70 L 405 72 L 404 73 L 402 72 L 399 66 L 399 61 Z
M 51 60 L 52 61 L 52 66 L 49 72 L 47 73 L 46 72 L 47 66 L 48 65 L 49 61 Z
M 380 49 L 381 48 L 385 48 L 392 51 L 393 53 L 392 54 L 385 53 L 381 51 Z
M 54 55 L 66 55 L 72 52 L 76 48 L 375 48 L 379 52 L 385 55 L 397 55 L 398 56 L 398 58 L 397 59 L 397 65 L 398 66 L 398 69 L 401 74 L 405 78 L 405 523 L 401 527 L 398 532 L 398 535 L 397 536 L 397 542 L 398 543 L 398 545 L 397 546 L 385 546 L 379 549 L 375 553 L 76 553 L 72 549 L 66 546 L 54 546 L 53 545 L 53 543 L 54 542 L 54 536 L 53 535 L 53 532 L 50 527 L 46 523 L 46 78 L 52 71 L 52 69 L 54 65 L 54 59 L 53 58 L 53 56 Z
M 71 49 L 70 51 L 66 53 L 63 53 L 62 54 L 59 54 L 58 53 L 59 51 L 66 48 L 70 48 Z
M 413 39 L 414 40 L 413 45 L 410 48 L 406 50 L 403 50 L 402 48 L 403 47 L 404 43 L 408 39 Z
M 37 40 L 38 39 L 42 39 L 44 40 L 47 43 L 49 49 L 48 50 L 45 50 L 41 48 L 38 45 Z
M 79 40 L 81 37 L 370 37 L 372 40 L 372 42 L 371 43 L 80 43 L 79 42 Z
M 33 35 L 34 42 L 36 46 L 39 49 L 39 50 L 33 55 L 34 59 L 37 62 L 37 66 L 35 68 L 33 68 L 34 71 L 38 71 L 39 70 L 39 64 L 38 62 L 39 61 L 41 61 L 43 59 L 43 56 L 42 55 L 40 55 L 37 58 L 36 58 L 35 57 L 35 54 L 37 52 L 41 50 L 43 51 L 48 51 L 49 52 L 49 54 L 43 64 L 43 67 L 42 68 L 42 77 L 40 79 L 33 80 L 33 521 L 40 522 L 42 524 L 42 533 L 43 534 L 43 537 L 46 543 L 48 545 L 49 549 L 48 550 L 43 550 L 41 551 L 37 549 L 35 547 L 35 544 L 36 543 L 37 543 L 40 546 L 42 546 L 43 545 L 43 542 L 41 540 L 39 540 L 38 539 L 39 537 L 39 531 L 37 530 L 34 530 L 33 532 L 37 535 L 37 539 L 34 542 L 33 546 L 37 550 L 38 550 L 39 552 L 36 555 L 34 559 L 33 566 L 39 566 L 45 563 L 47 561 L 49 561 L 53 566 L 57 566 L 61 562 L 64 562 L 67 565 L 67 566 L 69 566 L 70 564 L 69 561 L 67 560 L 61 561 L 60 559 L 56 556 L 53 558 L 53 560 L 54 560 L 56 562 L 56 564 L 55 565 L 53 565 L 50 562 L 50 560 L 49 559 L 49 556 L 50 555 L 50 552 L 51 551 L 53 551 L 61 556 L 64 556 L 65 557 L 70 557 L 71 558 L 76 558 L 78 561 L 78 566 L 373 566 L 373 561 L 375 558 L 382 558 L 383 557 L 387 557 L 394 554 L 398 551 L 400 551 L 401 552 L 402 559 L 401 560 L 401 562 L 398 565 L 396 565 L 395 564 L 395 562 L 398 559 L 398 558 L 395 556 L 393 557 L 390 561 L 388 561 L 387 560 L 384 560 L 382 561 L 381 563 L 382 566 L 384 566 L 384 565 L 387 562 L 390 562 L 394 566 L 398 566 L 402 561 L 404 561 L 406 563 L 412 566 L 418 566 L 418 564 L 417 563 L 417 559 L 415 555 L 412 552 L 412 551 L 418 546 L 417 542 L 414 539 L 414 535 L 418 532 L 417 530 L 413 530 L 412 531 L 412 537 L 413 539 L 412 540 L 410 540 L 408 542 L 408 545 L 409 546 L 411 546 L 414 543 L 415 543 L 416 544 L 416 547 L 412 550 L 403 550 L 402 549 L 402 547 L 405 543 L 407 539 L 408 534 L 409 533 L 409 524 L 411 522 L 418 521 L 418 80 L 411 79 L 409 77 L 409 68 L 408 67 L 408 64 L 405 58 L 403 56 L 402 52 L 403 51 L 412 51 L 416 54 L 416 57 L 415 58 L 414 58 L 411 55 L 409 55 L 408 56 L 408 59 L 410 61 L 412 61 L 413 62 L 412 64 L 412 70 L 413 71 L 417 71 L 418 69 L 414 66 L 414 62 L 417 59 L 418 55 L 414 51 L 413 51 L 412 49 L 415 46 L 417 42 L 417 38 L 418 37 L 418 35 L 413 35 L 412 36 L 410 36 L 406 38 L 404 40 L 402 40 L 398 35 L 394 35 L 390 39 L 387 39 L 384 36 L 384 35 L 382 35 L 381 37 L 382 40 L 384 41 L 390 40 L 391 42 L 395 45 L 398 43 L 398 41 L 397 41 L 395 39 L 395 37 L 396 36 L 398 36 L 401 39 L 401 41 L 402 42 L 402 45 L 401 46 L 401 49 L 400 50 L 398 50 L 394 47 L 390 46 L 387 44 L 375 43 L 373 40 L 373 35 L 78 35 L 78 40 L 76 43 L 64 44 L 57 47 L 53 50 L 51 50 L 50 49 L 49 42 L 50 41 L 50 39 L 53 36 L 55 36 L 56 37 L 56 39 L 53 42 L 53 43 L 56 45 L 58 44 L 61 40 L 63 40 L 64 41 L 67 41 L 69 40 L 70 38 L 69 35 L 67 35 L 67 36 L 64 39 L 61 39 L 57 35 L 53 35 L 49 40 L 47 40 L 45 38 L 39 35 Z"
          fill="#B58A1F"
          fill-rule="evenodd"
          clip-rule="evenodd"/>
  </g>
</svg>
